0
SECTION
2
HEADER
9
$INSUNITS
70
4
9
$ACADVER
1
AC1014
9
$HANDSEED
5
FFFF
0
ENDSEC
0
SECTION
2
TABLES
0
TABLE
2
VPORT
5
8
100
AcDbSymbolTable
0
ENDTAB
0
TABLE
2
LTYPE
5
5
100
AcDbSymbolTable
0
LTYPE
5
14
100
AcDbSymbolTableRecord
100
AcDbLinetypeTableRecord
2
BYBLOCK
70
0
0
LTYPE
5
15
100
AcDbSymbolTableRecord
100
AcDbLinetypeTableRecord
2
BYLAYER
70
0
0
LTYPE
5
16
100
AcDbSymbolTableRecord
100
AcDbLinetypeTableRecord
2
DASHED
70
0
3
Dashed __ __ __ __ __ __ __ __ __ __ __ __ __ _
72
65
73
2
40
0.75
49
0.5
74
0
49
-0.25
74
0
0
ENDTAB
0
TABLE
2
LAYER
5
2
100
AcDbSymbolTable
70
2
0
LAYER
5
50
100
AcDbSymbolTableRecord
100
AcDbLayerTableRecord
2
0
70
0
62
7
6
CONTINUOUS
0
ENDTAB
0
TABLE
2
STYLE
5
3
100
AcDbSymbolTable
70
1
0
STYLE
5
11
100
AcDbSymbolTableRecord
100
AcDbTextStyleTableRecord
2
STANDARD
70
0
0
ENDTAB
0
TABLE
2
VIEW
5
6
100
AcDbSymbolTable
70
0
0
ENDTAB
0
TABLE
2
UCS
5
7
100
AcDbSymbolTable
70
0
0
ENDTAB
0
TABLE
2
APPID
5
9
100
AcDbSymbolTable
70
2
0
APPID
5
12
100
AcDbSymbolTableRecord
100
AcDbRegAppTableRecord
2
ACAD
70
0
0
ENDTAB
0
TABLE
2
DIMSTYLE
5
A
100
AcDbSymbolTable
70
1
0
ENDTAB
0
TABLE
2
BLOCK_RECORD
5
1
100
AcDbSymbolTable
70
1
0
BLOCK_RECORD
5
1F
100
AcDbSymbolTableRecord
100
AcDbBlockTableRecord
2
*MODEL_SPACE
0
BLOCK_RECORD
5
1B
100
AcDbSymbolTableRecord
100
AcDbBlockTableRecord
2
*PAPER_SPACE
0
ENDTAB
0
ENDSEC
0
SECTION
2
BLOCKS
0
BLOCK
5
20
100
AcDbEntity
100
AcDbBlockBegin
2
*MODEL_SPACE
0
ENDBLK
5
21
100
AcDbEntity
100
AcDbBlockEnd
0
BLOCK
5
1C
100
AcDbEntity
100
AcDbBlockBegin
2
*PAPER_SPACE
0
ENDBLK
5
1D
100
AcDbEntity
100
AcDbBlockEnd
0
ENDSEC
0
SECTION
2
ENTITIES
0
LWPOLYLINE
5
100
100
AcDbEntity
8
0
100
AcDbPolyline
90
3
70
1
43
0.0
10
-821.02193440279791
20
-1031.0194913119467
10
-627.27660954480734
20
-1055.7890530090194
10
-561.02211833443016
20
-1030.7102269995773
0
SPLINE
5
101
100
AcDbEntity
8
0
100
AcDbSpline
70
6
71
5
72
51
73
45
74
0
42
0.000000001
43
0.0000000001
44
0.0000000001
40
0
40
0
40
0
40
0
40
0
40
0
40
0.025000000000000001
40
0.050000000000000003
40
0.075000000000000011
40
0.10000000000000001
40
0.125
40
0.14999999999999999
40
0.17499999999999999
40
0.19999999999999998
40
0.22499999999999998
40
0.24999999999999997
40
0.27499999999999997
40
0.29999999999999999
40
0.32500000000000001
40
0.35000000000000003
40
0.37500000000000006
40
0.40000000000000008
40
0.4250000000000001
40
0.45000000000000012
40
0.47500000000000014
40
0.50000000000000011
40
0.52500000000000013
40
0.55000000000000016
40
0.57500000000000018
40
0.6000000000000002
40
0.62500000000000022
40
0.65000000000000024
40
0.67500000000000027
40
0.70000000000000029
40
0.72500000000000031
40
0.75000000000000033
40
0.77500000000000036
40
0.80000000000000038
40
0.8250000000000004
40
0.85000000000000042
40
0.87500000000000044
40
0.90000000000000047
40
0.92500000000000049
40
0.95000000000000051
40
0.97500000000000053
40
1
40
1
40
1
40
1
40
1
40
1
41
1
41
1
41
1
41
1
41
1
41
1
41
1
41
1
41
1
41
1
41
1
41
1
41
1
41
1
41
1
41
1
41
1
41
1
41
1
41
1
41
1
41
1
41
1
41
1
41
1
41
1
41
1
41
1
41
1
41
1
41
1
41
1
41
1
41
1
41
1
41
1
41
1
41
1
41
1
41
1
41
1
41
1
41
1
41
1
41
1
10
-812.02177215638926
20
-1107.0351221587171
30
0
10
-811.28014731763881
20
-1103.6229046481781
30
-3.7274542107422577e-15
10
-809.53769191133915
20
-1097.0464435365573
30
-1.1309313591235801e-14
10
-806.08408864602552
20
-1088.0059784848117
30
-2.2455910868615394e-14
10
-799.61741266431886
20
-1077.7812796416756
30
-3.4124098973704374e-14
10
-788.26740297636957
20
-1067.9905310237555
30
-3.6456105968339702e-14
10
-773.7382334558207
20
-1060.8143812490421
30
-2.1128427940711189e-14
10
-756.32814423181355
20
-1055.7404481563233
30
1.4365871616560754e-14
10
-736.50576112830447
20
-1052.3311908947005
30
6.7701647131549717e-14
10
-714.87520227508878
20
-1050.3195905254588
30
1.3172196512970185e-13
10
-692.14763600541175
20
-1049.5742447302305
30
1.9662196189591101e-13
10
-669.1115084704586
20
-1050.0989014137012
30
2.5154358865035338e-13
10
-646.6041515341476
20
-1052.0189484050416
30
2.8641366731376842e-13
10
-625.48221317157459
20
-1055.5728101784964
30
2.9365596253417358e-13
10
-606.59476125680624
20
-1061.1043274289427
30
2.7002258043492071e-13
10
-590.74954094158352
20
-1069.0476341615656
30
2.182348746218445e-13
10
-578.59265975589199
20
-1079.7843095421492
30
1.4552148272776217e-13
10
-570.48507156510857
20
-1093.5015101668521
30
6.2337743290598736e-14
10
-566.39298823621255
20
-1110.0599461468282
30
-1.8982073892662622e-14
10
-565.73774647231562
20
-1128.8303560958825
30
-8.549694015585714e-14
10
-567.36088458701283
20
-1148.620350421985
30
-1.250721461473472e-13
10
-569.97791742990387
20
-1167.9822174417877
30
-1.283920647728338e-13
10
-572.55211593319507
20
-1185.4608206773585
30
-9.0848475530238943e-14
10
-574.71514787058015
20
-1199.870218040453
30
-1.4596409950684529e-14
10
-577.13510495566015
20
-1210.5458692269067
30
8.9661253084741548e-14
10
-582.00484945408755
20
-1217.6445760324873
30
2.0012118027378795e-13
10
-591.96379695374071
20
-1221.8495521513325
30
2.9156701920984541e-13
10
-608.90656341819363
20
-1224.0304119112241
30
3.4379477668601413e-13
10
-632.78771336065756
20
-1224.9129888832665
30
3.5007517466511267e-13
10
-662.0802203606894
20
-1225.052784017704
30
3.142918432517325e-13
10
-694.28769124258235
20
-1224.8218040355803
30
2.4771080505645251e-13
10
-726.43647434675074
20
-1224.3880058290918
30
1.6589898204151612e-13
10
-755.56175148074669
20
-1223.7006341415886
30
8.5665359975922342e-14
10
-779.22241062164244
20
-1222.4638266326047
30
2.1862203849679723e-14
10
-795.94270433426402
20
-1220.133555157686
30
-1.5428902630295379e-14
10
-805.8403489285663
20
-1215.8570091621173
30
-2.4687855289925134e-14
10
-810.69538283683062
20
-1208.5827973581872
30
-1.3800219538893085e-14
10
-812.81666596404546
20
-1197.5060634751721
30
5.5581823737986748e-15
10
-814.02340964468863
20
-1182.520984905372
30
2.2766172529038334e-14
10
-814.94920333801883
20
-1164.4600531264628
30
3.1861138268849274e-14
10
-815.48829226120961
20
-1144.6872150603601
30
3.0307574068022467e-14
10
-815.10819264965585
20
-1128.7919788362265
30
2.1059450319517326e-14
10
-813.98744094384119
20
-1117.5197485997903
30
1.1055411673217593e-14
10
-812.76339699513937
20
-1110.4473396692558
30
3.7274542107421772e-15
10
-812.02177215638926
20
-1107.0351221587171
30
0
0
ENDSEC
0
SECTION
2
OBJECTS
0
DICTIONARY
5
C
100
AcDbDictionary
3
ACAD_GROUP
350
D
3
ACAD_MLINESTYLE
350
17
0
DICTIONARY
5
D
100
AcDbDictionary
0
DICTIONARY
5
1A
330
C
100
AcDbDictionary
0
DICTIONARY
5
17
100
AcDbDictionary
0
ENDSEC
0
EOF
